<svg width="59" height="60" viewBox="0 0 59 60" fill="none" xmlns="http://www.w3.org/2000/svg">
<g clip-path="url(#clip0_369_12488)">
<path d="M136.552 144.982H131.152V57.2392C131.152 54.7067 129.093 52.6629 126.576 52.6629H110.955C108.423 52.6629 106.379 54.7221 106.379 57.2392V144.982H96.3724V75.3307C96.3724 72.7983 94.3132 70.7545 91.7961 70.7545H76.191C73.6586 70.7545 71.6147 72.8137 71.6147 75.3307V144.982H61.6081V93.407C61.6081 90.8745 59.5489 88.8307 57.0318 88.8307H41.4115C38.879 88.8307 36.8352 90.8899 36.8352 93.407V144.982H26.8286L26.8281 111.499C26.8281 108.966 24.7689 106.922 22.2518 106.922H6.64671C4.11425 106.922 2.07043 108.981 2.07043 111.499V144.982H-3.32957C-4.3058 144.982 -5.08393 145.76 -5.08393 146.721C-5.08393 147.682 -4.30582 148.475 -3.32957 148.475H136.565C137.525 148.475 138.319 147.697 138.319 146.721C138.319 145.744 137.525 144.982 136.549 144.982H136.552ZM109.887 57.2392C109.887 56.6443 110.376 56.1562 110.97 56.1562H126.591C127.186 56.1562 127.674 56.6443 127.674 57.2392V144.982H109.887L109.887 57.2392ZM75.1078 75.3307C75.1078 74.7359 75.5959 74.2477 76.1908 74.2477H91.8112C92.406 74.2477 92.8941 74.7359 92.8941 75.3307V144.982L75.1077 144.981L75.1078 75.3307ZM40.3434 93.407C40.3434 92.8121 40.8315 92.324 41.4264 92.324H57.0468C57.6416 92.324 58.1297 92.8121 58.1297 93.407V144.982H40.3433L40.3434 93.407ZM5.56377 111.499C5.56377 110.904 6.05188 110.416 6.64676 110.416H22.2671C22.862 110.416 23.3501 110.904 23.3501 111.499V144.982H5.56364L5.56377 111.499ZM102.062 22.1697C101.986 21.2089 102.703 20.3543 103.664 20.2783L118.476 19.0275C119.437 18.951 120.291 19.6681 120.367 20.6294L121.618 35.4413C121.695 36.4021 120.978 37.2567 120.016 37.3327C119.055 37.4092 118.201 36.6921 118.125 35.7308L117.255 25.4188C104.579 41.451 88.5621 55.073 69.6163 65.9035C51.9977 75.9865 32.1519 83.3391 12.2604 87.1832C12.1536 87.1986 12.0315 87.2135 11.9247 87.2135C11.1009 87.2135 10.369 86.634 10.2161 85.7948C10.0329 84.8489 10.6585 83.9337 11.6045 83.751C53.2181 75.7271 90.6977 53.5781 114.845 22.8408L103.954 23.756C102.993 23.8483 102.139 23.1311 102.062 22.1697ZM28.018 53.807C41.4417 53.807 52.379 42.8847 52.379 29.446C52.379 16.0072 41.4419 5.08496 28.018 5.08496C14.5943 5.08496 3.65699 16.0072 3.65699 29.446C3.65699 42.8847 14.5942 53.807 28.018 53.807ZM28.018 8.57818C39.5197 8.57818 48.8858 17.9289 48.8858 29.446C48.8858 40.9477 39.5351 50.3138 28.018 50.3138C16.5163 50.3138 7.15021 40.9631 7.15021 29.446C7.15021 17.9443 16.5168 8.57818 28.018 8.57818ZM22.8622 29.0189C21.3978 27.5545 20.5894 25.6169 20.5894 23.5428C20.5894 19.9275 23.1219 16.8766 26.493 16.0835L26.4925 13.9782C26.4925 13.0173 27.2706 12.2238 28.2468 12.2238C29.2231 12.2238 30.0012 13.0019 30.0012 13.9782V16.0985C32.2591 16.6323 34.1961 18.1731 35.2031 20.3391C35.6148 21.2085 35.2334 22.2612 34.3491 22.6575C33.4796 23.0691 32.4269 22.6878 32.0307 21.8034C31.3444 20.339 29.8647 19.3931 28.2627 19.3931C25.9746 19.3931 24.0981 21.2542 24.0981 23.5577C24.0981 24.6864 24.5405 25.7545 25.3489 26.5476C26.0962 27.2949 27.0421 27.707 28.0184 27.707H28.0487C29.9555 27.707 31.7857 28.4851 33.1895 29.873C34.6539 31.3374 35.4622 33.275 35.4622 35.349C35.4622 38.8115 33.1587 41.7407 30.0011 42.6862V44.9133C30.0011 45.8741 29.223 46.6677 28.2467 46.6677C27.2705 46.6677 26.4924 45.8896 26.4924 44.9133V42.8844C24.0518 42.4573 21.9161 40.8554 20.8486 38.5524C20.4369 37.6829 20.8183 36.6303 21.7027 36.234C22.5721 35.8224 23.6248 36.2037 24.021 37.0881C24.7073 38.5525 26.187 39.4984 27.789 39.4984C30.0771 39.4984 31.9536 37.6373 31.9536 35.3337C31.9536 34.2051 31.5112 33.137 30.7028 32.3439C29.9555 31.5966 29.0096 31.1845 28.0333 31.1845H28.003C26.0962 31.1849 24.2655 30.4221 22.8622 29.0189Z" fill="#FF7F50"/>
</g>
<defs>
<clipPath id="clip0_369_12488">
<rect width="58.983" height="60" fill="white"/>
</clipPath>
</defs>
</svg>
